<svg id="Capa_1" enable-background="new 0 0 512 512" height="512" viewBox="0 0 512 512" width="512" xmlns="http://www.w3.org/2000/svg"><g><ellipse cx="175.058" cy="154.955" fill="#e7889d" rx="172.85" ry="154.955"/><path d="m312.285 249.168c-188.575-3.529-234.232-173.526-200.646-238.405-64.086 22.671-109.43 78.684-109.43 144.192 0 85.579 77.387 154.955 172.85 154.955 55.922 0 105.633-23.815 137.226-60.742z" fill="#e26e7e"/><g><g><path d="m125.21 132.624c-7.843 0-8.31-.08-8.853-.174-3.599-.619-6.229-3.74-6.229-7.392v-71.836c0-4.143 3.357-7.5 7.5-7.5s7.5 3.357 7.5 7.5v64.397c4.845-.002 11.475-.026 17.635-.061h.043c4.123 0 7.476 3.33 7.499 7.458.023 4.142-3.315 7.519-7.458 7.542-8.216.047-13.807.066-17.637.066z" fill="#fff"/></g><path d="m194.074 226.966h-22.518v-20.621h20.305c4.143 0 7.5-3.357 7.5-7.5s-3.357-7.5-7.5-7.5h-20.305v-20.62h22.518c4.143 0 7.5-3.357 7.5-7.5s-3.357-7.5-7.5-7.5h-30.018c-4.143 0-7.5 3.357-7.5 7.5v71.241c0 4.143 3.357 7.5 7.5 7.5h30.018c4.143 0 7.5-3.357 7.5-7.5s-3.357-7.5-7.5-7.5z" fill="#fff"/><g><path d="m93.475 241.966c-11.721 0-23.164-4.904-30.611-13.12-2.782-3.069-2.55-7.813.519-10.594 3.068-2.782 7.811-2.549 10.594.52 4.651 5.131 11.94 8.194 19.498 8.194 7.728 0 13.198-4.779 14.023-9.4.812-4.542-2.971-8.714-10.376-11.445-11.104-4.096-20.962-8.483-21.376-8.668-.361-.161-.709-.351-1.04-.566-7.091-4.623-10.744-12.733-9.534-21.165 1.296-9.024 7.918-16.384 17.283-19.205 18.888-5.684 34.45 7.153 35.104 7.702 3.171 2.665 3.58 7.396.915 10.567-2.657 3.16-7.366 3.577-10.535.941-.241-.195-10.222-8.143-21.158-4.848-5.434 1.637-6.539 5.422-6.762 6.973-.353 2.459.565 4.733 2.469 6.18 2.328 1.021 10.755 4.67 19.825 8.017 17.278 6.373 21.636 18.723 19.951 28.154-2.214 12.406-14.592 21.763-28.789 21.763z" fill="#fff"/></g><path d="m215.137 132.947c-23.958 0-43.449-19.491-43.449-43.448 0-23.958 19.491-43.449 43.449-43.449 23.957 0 43.448 19.491 43.448 43.449 0 23.957-19.491 43.448-43.448 43.448zm0-71.897c-15.687 0-28.449 12.763-28.449 28.449s12.763 28.448 28.449 28.448 28.448-12.762 28.448-28.448-12.762-28.449-28.448-28.449z" fill="#fff"/></g><path d="m147.331 268.805c41.828-17.934 106.062-78.345 126.596-98.879l159.394 159.394c-20.534 20.534-80.945 84.768-98.879 126.596z" fill="#daa985"/><g><g fill="#fff"><ellipse cx="215.185" cy="272.156" rx="24.082" ry="30.241" transform="matrix(.707 -.707 .707 .707 -129.417 231.873)"/><ellipse cx="331.091" cy="388.062" rx="24.082" ry="30.241" transform="matrix(.707 -.707 .707 .707 -177.427 347.772)"/></g><g fill="#4e5660"><path d="m287.847 361.506c-.44 0-.886-.038-1.334-.119-4.077-.731-6.789-4.63-6.057-8.707 1.689-9.417-.572-18.048-6.206-23.682s-14.266-7.895-23.683-6.207c-4.084.738-7.976-1.98-8.707-6.057-.732-4.077 1.979-7.976 6.057-8.707 14.317-2.571 27.782 1.207 36.939 10.363 9.156 9.155 12.934 22.619 10.363 36.94-.651 3.629-3.811 6.176-7.372 6.176z"/><path d="m257.631 282.234c-8.142.001-15.977-3.219-21.766-9.008-6.29-6.289-9.547-14.995-8.937-23.885.284-4.132 3.88-7.248 7.996-6.968 4.133.284 7.253 3.864 6.969 7.996-.314 4.563 1.355 9.026 4.578 12.249 3.224 3.223 7.69 4.896 12.25 4.578 4.128-.281 7.713 2.836 7.996 6.969.284 4.132-2.836 7.712-6.969 7.996-.706.05-1.414.073-2.117.073z"/><path d="m351.786 376.391c-8.142 0-15.976-3.22-21.766-9.009-6.289-6.29-9.546-14.995-8.936-23.884.284-4.133 3.865-7.239 7.996-6.969 4.133.284 7.253 3.864 6.969 7.996-.314 4.563 1.355 9.026 4.578 12.249 3.223 3.224 7.677 4.902 12.249 4.579 4.113-.273 7.712 2.836 7.996 6.969.284 4.132-2.836 7.712-6.969 7.996-.706.049-1.413.073-2.117.073z"/></g></g><path d="m161.546 274.214 167.487 167.487c10.599 10.599 13.038 26.875 6.011 40.115l-9.319 17.56c-7.489 14.112-26.492 16.959-37.788 5.663l-189.728-189.729c-11.297-11.297-8.449-30.299 5.663-37.788l17.56-9.319c13.24-7.027 29.516-4.588 40.114 6.011z" fill="#e7c7af"/><path d="m489.536 113.711c-2.93-2.928-7.678-2.928-10.607 0l-8.015 8.015-2.61-2.61c-2.93-2.928-7.678-2.928-10.607 0-2.929 2.93-2.929 7.678 0 10.607l2.61 2.61-21.727 21.727c-2.929 2.93-2.929 7.678 0 10.607 2.931 2.929 7.678 2.928 10.607 0l21.726-21.726 2.61 2.61c2.931 2.929 7.678 2.928 10.607 0 2.929-2.93 2.929-7.678 0-10.607l-2.61-2.61 8.015-8.015c2.93-2.93 2.93-7.678.001-10.608z" fill="#e7c7af"/><path d="m466.807 283.929-147.489-147.489c5.446-8.512 12.432-20.388 18.177-30.965 6.467-11.906 21.737-15.65 33.009-8.132 28.823 19.224 58.937 47.577 73.38 62.02s42.796 44.557 62.02 73.38c7.518 11.272 3.774 26.542-8.132 33.009-10.578 5.745-22.454 12.731-30.965 18.177z" fill="#daa985"/><path d="m466.807 283.929-147.489-147.489c4.851-7.582 10.922-17.831 16.251-27.456l158.694 158.694c-9.625 5.329-19.875 11.4-27.456 16.251z" fill="#d2896f"/><path d="m433.321 329.32c-5.49 5.49-13.833 14.107-23.451 24.582l-160.525-160.526c10.475-9.618 19.092-17.96 24.582-23.451z" fill="#d2896f"/><path d="m273.245 173.569 156.433 156.433c9.357 9.357 24.527 9.357 33.884 0l7.717-7.717c9.357-9.357 9.357-24.527 0-33.884l-156.433-156.433c-9.357-9.357-24.527-9.357-33.884 0l-7.717 7.717c-9.357 9.357-9.357 24.528 0 33.884z" fill="#f2d98d"/></g></svg>